<?xml version="1.0" standalone="no"?>
<!DOCTYPE svg PUBLIC "-//W3C//DTD SVG 20010904//EN"
 "http://www.w3.org/TR/2001/REC-SVG-20010904/DTD/svg10.dtd">
<svg version="1.0" xmlns="http://www.w3.org/2000/svg"
 width="1200.000000pt" height="1200.000000pt" viewBox="0 0 1200.000000 1200.000000"
 preserveAspectRatio="xMidYMid meet">
<metadata>
Created by potrace 1.14, written by Peter Selinger 2001-2017
</metadata>
<g transform="translate(0.000000,1200.000000) scale(0.100000,-0.100000)"
fill="#000000" stroke="none">
<path d="M2842 8975 l-1 -415 65 0 c44 0 64 4 64 13 1 6 1 77 2 157 0 142 1
146 28 183 l27 38 17 -33 c9 -18 32 -60 51 -93 19 -33 60 -106 91 -162 l57
-103 75 0 c63 0 73 2 68 16 -5 13 -94 165 -257 439 -14 24 -15 33 -6 46 12 15
92 111 112 133 6 6 28 33 50 60 22 28 55 66 72 85 18 20 33 39 33 44 0 4 -36
7 -80 7 l-80 0 -61 -77 c-33 -43 -68 -87 -77 -98 -10 -11 -39 -48 -66 -82 -27
-35 -50 -63 -52 -63 -1 0 -3 64 -2 143 0 78 -1 150 -1 160 -1 14 -11 17 -65
17 l-64 0 0 -415z"/>
<path d="M4364 9273 l1 -118 -68 -3 -67 -3 0 -59 0 -59 67 -3 67 -3 1 -155 c1
-140 3 -159 24 -200 12 -25 38 -56 56 -69 147 -100 331 -45 373 112 12 43 5
48 -70 60 -34 5 -37 4 -43 -23 -15 -67 -102 -100 -166 -63 -37 22 -42 49 -44
211 l-1 132 123 0 c136 0 125 -7 126 75 l1 40 -125 3 -125 3 1 117 0 117 -66
3 -66 3 1 -118z"/>
<path d="M6390 8975 l0 -415 68 0 67 0 0 177 0 178 153 3 152 3 0 59 0 59
-152 3 -153 3 -2 113 -1 112 199 0 199 0 0 60 0 60 -265 0 -265 0 0 -415z"/>
<path d="M8807 9383 c-3 -7 -2 -73 2 -103 0 -5 25 -10 55 -10 l55 0 0 -80 c0
-44 -2 -80 -5 -80 -3 0 -18 8 -32 18 -94 65 -221 50 -306 -34 -80 -81 -107
-226 -66 -354 35 -110 113 -175 220 -187 53 -6 112 10 149 38 32 25 41 24 41
-6 0 -24 2 -25 65 -25 l65 0 0 415 0 415 -119 0 c-66 0 -122 -3 -124 -7z m63
-355 l45 -23 0 -145 0 -145 -45 -23 c-113 -58 -230 6 -246 136 -20 165 109
269 246 200z"/>
<path d="M3728 9160 c-21 -5 -55 -20 -75 -34 -97 -61 -136 -132 -140 -257 -2
-76 1 -92 26 -145 36 -77 95 -126 183 -155 117 -37 267 -12 340 58 l27 26 -26
36 c-15 20 -30 40 -34 44 -3 5 -23 -3 -44 -17 -103 -70 -256 -58 -317 25 -13
17 -23 36 -23 42 0 9 68 13 245 17 l245 5 -3 48 c-1 26 -9 67 -18 90 -8 23
-16 47 -17 52 -4 16 -49 77 -77 104 -58 55 -199 85 -292 61z m167 -129 c46
-21 69 -44 84 -84 l11 -27 -170 0 c-125 0 -170 3 -170 12 0 25 47 79 85 97 51
25 109 26 160 2z"/>
<path d="M5160 9164 c-77 -15 -169 -88 -203 -162 -30 -64 -31 -229 -3 -282 31
-56 57 -88 95 -113 186 -123 439 -36 486 165 48 213 -74 386 -278 394 -40 1
-83 0 -97 -2z m180 -147 c97 -65 98 -247 2 -316 -17 -11 -54 -23 -85 -27 -111
-13 -188 55 -195 172 -8 127 69 210 187 200 34 -3 67 -14 91 -29z"/>
<path d="M7283 9161 c-172 -44 -263 -218 -210 -402 27 -93 89 -157 181 -190
148 -51 320 7 387 132 21 40 36 112 34 169 -5 172 -119 289 -288 296 -40 2
-86 -1 -104 -5z m156 -127 c137 -55 142 -284 7 -345 -89 -40 -189 -11 -234 70
-19 34 -26 119 -13 166 27 101 136 151 240 109z"/>
<path d="M7971 9154 c-129 -46 -201 -150 -202 -293 -1 -128 64 -236 171 -284
65 -28 189 -32 255 -7 89 34 163 115 180 195 47 227 -78 399 -294 403 -38 1
-85 -5 -110 -14z m207 -137 c50 -32 75 -86 75 -157 0 -91 -49 -164 -122 -181
-59 -14 -95 -10 -140 14 -133 70 -117 303 24 347 50 15 121 6 163 -23z"/>
<path d="M5960 6585 c-20 -6 -45 -26 -57 -44 -21 -31 -22 -43 -22 -233 0 -216
5 -242 53 -274 29 -18 94 -21 125 -5 12 7 31 27 41 44 18 29 20 52 20 232 0
180 -2 203 -20 232 -31 52 -80 69 -140 48z"/>
<path d="M5335 6290 c-65 -26 -90 -118 -48 -176 12 -16 80 -87 151 -157 117
-116 133 -129 172 -134 99 -13 170 87 123 171 -16 29 -267 277 -295 292 -30
15 -72 17 -103 4z"/>
<path d="M6555 6282 c-56 -36 -293 -290 -300 -322 -8 -38 9 -91 40 -120 28
-27 88 -33 126 -14 46 23 293 280 306 319 35 99 -84 193 -172 137z"/>
<path d="M3579 6146 c-2 -2 -38 -6 -79 -10 -41 -3 -85 -8 -96 -10 -12 -3 -38
-7 -58 -10 -85 -14 -224 -47 -257 -62 -22 -10 -44 -30 -57 -52 -20 -38 -56
-178 -68 -267 -3 -27 -7 -52 -9 -55 -11 -18 -20 -196 -20 -380 0 -243 7 -328
41 -500 8 -41 16 -84 18 -95 2 -11 11 -47 20 -80 9 -33 19 -69 21 -79 29 -127
156 -428 251 -593 63 -109 228 -348 273 -394 9 -9 32 -36 51 -60 60 -75 262
-273 382 -375 109 -93 302 -224 453 -308 179 -100 496 -226 568 -226 39 0 85
29 100 62 8 18 17 26 28 23 33 -11 226 -45 284 -51 92 -9 106 -12 124 -27 15
-14 67 -33 107 -41 11 -2 37 -9 59 -15 22 -6 58 -13 80 -16 22 -4 67 -10 100
-15 236 -35 530 -32 795 10 120 19 336 71 390 93 8 4 42 15 75 26 103 33 331
137 437 199 324 190 540 371 823 693 166 188 365 516 463 764 71 178 137 418
158 575 3 19 7 46 9 60 28 152 27 554 -1 750 -14 97 -56 283 -70 314 -9 19
-33 43 -53 54 -31 17 -130 44 -211 58 -14 2 -34 6 -46 9 -11 2 -45 7 -75 11
-30 3 -81 9 -114 14 -121 16 -436 8 -610 -15 -72 -10 -334 -64 -375 -77 -19
-7 -37 -13 -40 -13 -31 -7 -105 -33 -204 -72 -343 -135 -664 -344 -940 -612
-125 -121 -366 -399 -366 -422 0 -25 -30 -1 -78 59 -28 37 -67 84 -86 104
l-34 38 18 36 c19 37 20 77 2 111 -10 17 -143 148 -208 203 -61 53 -202 159
-276 208 -119 80 -380 223 -433 238 -5 1 -50 19 -100 39 -200 82 -419 136
-700 171 -51 7 -460 15 -466 10z"/>
</g>
</svg>
